<svg xmlns="http://www.w3.org/2000/svg" xmlns:xlink="http://www.w3.org/1999/xlink" version="1.1" id="Layer_1" x="0px" y="0px" viewBox="0 0 100 100" enable-background="new 0 0 100 100" xml:space="preserve" height="100px" width="100px">
<g>
	<path d="M68.7,25.1c-2.4,0-4.3-1.9-4.3-4.3V9.3c0-2.4,1.9-4.3,4.3-4.3C71.1,5,73,6.9,73,9.3v11.5C73,23.2,71.1,25.1,68.7,25.1z"/>
	<path d="M31.3,25.1c-2.4,0-4.3-1.9-4.3-4.3V9.3C27,6.9,28.9,5,31.3,5c2.4,0,4.3,1.9,4.3,4.3v11.5C35.6,23.2,33.7,25.1,31.3,25.1z"/>
	<path d="M11.7,22.9c0-6,4.9-10.9,10.9-10.9h1.6v8.7c0,4,3.2,7.2,7.2,7.2s7.2-3.2,7.2-7.2v-8.7h22.9v8.7c0,4,3.2,7.2,7.2,7.2   c4,0,7.2-3.2,7.2-7.2v-8.7h1.6c6,0,10.9,4.9,10.9,10.9v61.2c0,6-4.9,10.8-10.9,10.8H48.4c0,0-0.1,0-0.1,0c-0.1,0-0.2,0-0.3,0   c-13.5,0-35.1-3.8-36.3-21.9c0-0.1,0-1.1,0-1.1V22.9z M34.3,87.1c-0.6-0.6-1.8-2.9-2.1-3.3c-2.2-3.9-3-8.3-2.4-13.2l-11.3,3.2   C19.1,79.3,27.3,85.9,34.3,87.1z M18.2,67.1l15.1-4.3c1.1-0.3,2.4,0,3.2,0.8c0.8,0.9,1.1,2.1,0.8,3.2c-1.7,5.4-1.4,9.9,0.6,13.6   c3.2,7.2,8.6,8,10.5,8h29.1c2.4,0,4.3-1.9,4.3-4.3V38.5H18.2V67.1z"/>
</g>
</svg>