<svg xmlns="http://www.w3.org/2000/svg" xmlns:xlink="http://www.w3.org/1999/xlink" version="1.1" id="Layer_1" x="0px" y="0px" width="100px" height="50px" viewBox="0 0 100 50" enable-background="new 0 0 100 50" xml:space="preserve">
<path d="M28.214,35.494c0,0-1.203,3.765-6.301,3.851c-5.099,0.085-6.385-4.114-6.556-4.885l-1.371,0.043v1.028  c0,0-7.884-0.514-9.255-0.857c0,0-0.705-0.4-0.64-0.596c0,0,0.392-0.589,1.073-0.825c0,0-0.964-2.192-1.077-2.878  s-0.056-2.742,0.458-3.542s0.428-0.515,0.428-0.515s-0.028-1.999,0.885-2.77c0.915-0.771,4.828-2.6,7.999-3.685  c3.171-1.085,10.569-2.457,11.112-2.542s0.885-0.172,0.885-0.172s10.369-5.27,15.468-6.812c5.1-1.542,22.752-1.114,27.552,0  c4.798,1.114,14.996,5.185,16.796,5.999l5.099,0.814h2.613l-0.257,0.772c0,0,0.386,1.328,0.601,2.785  c0.214,1.457,0.214,3.085,0.342,3.342c0.129,0.257,1.072,2.314,1.072,2.314s0.299,0.899,0.256,1.714  c-0.042,0.814-0.171,4.027-0.171,4.027l-1.028,1.371l-8.998,1.5l-0.171-0.771H83.87c0,0-0.814,4.756-6.342,4.928  s-7.241-3.557-7.284-3.941l-40.448,0.214"/>
</svg>