<svg xmlns="http://www.w3.org/2000/svg" xmlns:xlink="http://www.w3.org/1999/xlink" version="1.1" x="0px" y="0px" width="100px" height="100px" viewBox="0 0 100 100" enable-background="new 0 0 100 100" xml:space="preserve">
<g id="Captions">
</g>
<g id="Your_Icon">
	<g>
		<path d="M46.875,41.027c0.992-1.224,0.84-2.194,0.612-2.724c-2.146-1.683-3.172-4.553-4.78-6.795l-0.053,0.024    c0,0-1.054-1.055-2.227,0c-1.171,1.056-6.915,6.915-6.915,6.915s-4.102-0.938-9.024,3.047c-4.922,3.985-8.907,9.144-8.907,9.144    s-2.227,2.813-0.587,5.273c1.64,2.462,1.407,3.634,0.351,6.212c-1.054,2.578-6.329,16.409-6.329,16.409s-1.171,2.344,0,3.164    c1.173,0.82,5.158,1.524,5.158,1.524s1.208,0.478,2.222-0.492c0.338-1.635,1.107-3.233,2.156-4.54L25.894,60h6.212    c0,0-1.758,0.945-3.739,1.648c-1.981,0.701-1.535,5.922-1.535,11.078c0,5.157,0.585,7.767,1.535,7.886    c0.95,0.117,0.809-5.611,0.692-10.887c-0.117-5.273,0-4.914,3.164-6.32c3.164-1.407,3.75-0.698,5.508,1.293    c1.757,1.993-1.522,9.613-4.688,14.302c-3.165,4.688-7.618,1.876-10.667,0.587c-1.789-0.757-2.347-0.933-2.885-1.028    c-0.92,1.109-1.627,2.347-2.019,3.713c0.104,0.45,0.127,1.3,2.326,1.653c2.93,0.468,10.314,1.054,10.314,1.054    s3.985,0.469,5.978-2.929c1.991-3.4,8.086-15.354,8.086-15.354s1.289-2.462,0.352-4.923l0.234-1.289c0,0,0.938-0.117,1.992-2.109    c1.056-1.993,2.462-3.634,1.525-7.853C47.343,46.301,45.35,42.902,46.875,41.027z"/>
		<path d="M83.676,23.445c0.234-1.522,0.234-4.101-1.641-3.984c-1.876,0.117-12.775,0.938-12.775,0.938s-0.468-0.594-1.641-0.941    c-1.172-0.35-1.875,1.526-1.875,1.526l-1.524,0.118c0,0-1.055-1.056-1.992-0.938s-1.523,1.828-1.523,1.828l-1.523,0.75    c0,0-1.055-1.034-2.344-0.75c-1.29,0.281-1.056,2.576-1.056,2.576l-1.289,0.753c0,0-0.351-0.82-1.876-0.82    c-1.523,0-1.406,2.695-1.406,2.695l-1.875,1.173c0,0-0.703-0.469-1.876,0c-1.171,0.469-1.405,1.522-1.405,1.522l-2.478,0.687    c1.454,2.088,2.45,4.695,4.31,6.346l2.152-1.874c0,0,0.821,0.117,0.703-1.172l2.11-1.759c0,0,1.054,0,1.054-0.586l3.048-2.109    c0,0,0.82,0.82,0.938-0.586l3.046-1.524c0,0,0.822,1.056,0.938-0.468l3.516-0.821c0,0,0.822,1.172,1.056-0.234l2.813-0.116    c0,0,0.821,2.343,1.406-0.353l11.369-0.82C82.035,24.501,83.441,24.97,83.676,23.445z M47.577,29.6c0,0-0.645-0.645,0.821-0.586    L47.577,29.6z M52.03,26.61c0,0-0.409-1.816,1.407-0.937L52.03,26.61z M56.72,23.798c0,0-0.117-1.465,1.464-0.762L56.72,23.798z     M61.466,21.806c0,0,0.41-1.466,1.699-0.47L61.466,21.806z M66.798,21c0,0,0.705-2,1.583,0H66.798z"/>
		<path d="M88.39,36.495c-1.851-4.008-3.158-8.266-3.158-8.266s-1.002,3.006-2.756,7.39c-1.753,4.384,0.251,7.388,2.756,7.388    C87.735,43.007,90.24,40.502,88.39,36.495z"/>
		<path d="M77.912,38.975c0,0-1.002,3.007-2.754,7.39c-1.755,4.384,0.249,7.388,2.754,7.388c2.506,0,5.01-2.504,3.159-6.511    C79.222,43.232,77.912,38.975,77.912,38.975z"/>
		<path d="M87.582,46.363c0,0-1.31,4.258-3.159,8.266c-1.851,4.008,0.653,6.512,3.159,6.512c2.505,0,4.509-3.004,2.754-7.388    C88.584,49.369,87.582,46.363,87.582,46.363z"/>
	</g>
</g>
</svg>