<svg xmlns="http://www.w3.org/2000/svg" xmlns:xlink="http://www.w3.org/1999/xlink" version="1.1" id="Layer_1" x="0px" y="0px" width="100px" height="100px" viewBox="0 0 100 100" enable-background="new 0 0 100 100" xml:space="preserve">
<circle cx="63.393" cy="55.886" r="2.449"/>
<circle cx="54.73" cy="32.88" r="2.45"/>
<circle cx="63.393" cy="48.216" r="2.449"/>
<circle cx="54.73" cy="55.886" r="2.449"/>
<circle cx="63.393" cy="40.548" r="2.449"/>
<circle cx="54.73" cy="40.548" r="2.449"/>
<circle cx="54.73" cy="48.216" r="2.449"/>
<circle cx="63.393" cy="32.88" r="2.45"/>
<circle cx="72.06" cy="32.88" r="2.45"/>
<circle cx="72.06" cy="55.886" r="2.449"/>
<circle cx="72.06" cy="40.548" r="2.449"/>
<circle cx="72.06" cy="48.216" r="2.449"/>
<path d="M33.906,35.661v17.366c3.671-1.201,6.347-4.618,6.347-8.683S37.577,36.864,33.906,35.661z"/>
<path d="M94.488,13.352H5.185c-2.69,0-4.894,2.204-4.894,4.895v52.197c0,2.69,2.203,4.894,4.894,4.894h89.304  c2.69,0,4.894-2.203,4.894-4.894V18.246C99.382,15.556,97.179,13.352,94.488,13.352z M89.596,63.706  c0,2.023-1.646,3.669-3.671,3.669H13.748c-2.023,0-3.671-1.646-3.671-3.669V24.984c0-2.024,1.647-3.671,3.671-3.671h72.177  c2.024,0,3.671,1.646,3.671,3.671V63.706z"/>
<path d="M28.248,35.661c-3.669,1.203-6.346,4.619-6.346,8.684s2.677,7.481,6.346,8.683V35.661z"/>
<path d="M85.925,23.761H13.748c-0.674,0-1.224,0.549-1.224,1.224v38.722c0,0.673,0.55,1.223,1.224,1.223h72.177  c0.674,0,1.224-0.55,1.224-1.223V24.984C87.148,24.31,86.599,23.761,85.925,23.761z M31.077,55.966  c-6.407,0-11.621-5.213-11.621-11.621s5.214-11.622,11.621-11.622c6.409,0,11.622,5.214,11.622,11.622S37.486,55.966,31.077,55.966z   M76.953,58.258c0,1.346-1.101,2.446-2.446,2.446H52.283c-1.345,0-2.446-1.101-2.446-2.446V30.431c0-1.344,1.102-2.446,2.446-2.446  h22.224c1.346,0,2.446,1.103,2.446,2.446V58.258z"/>
</svg>